<svg width="121" height="24" viewBox="0 0 121 24" fill="none" xmlns="http://www.w3.org/2000/svg">
<path d="M36.5508 23.9989V5.36992H39.3388V6.89892C39.6789 6.37968 40.1557 5.96442 40.7168 5.69892C41.4004 5.33177 42.1659 5.14392 42.9418 5.15292C43.7639 5.09735 44.5879 5.23068 45.3505 5.54267C46.1132 5.85467 46.7943 6.33707 47.3418 6.95292C48.425 8.40365 48.958 10.1919 48.8458 11.9989C48.9458 13.793 48.4069 15.5645 47.3248 16.9989C46.7761 17.6247 46.0908 18.1158 45.3219 18.4343C44.5531 18.7529 43.7212 18.8903 42.8908 18.8359C42.1624 18.8446 41.4425 18.6794 40.7908 18.3539C40.2153 18.081 39.7171 17.6685 39.3418 17.1539V23.9989H36.5508ZM40.1258 8.77392C39.4531 9.71007 39.12 10.8478 39.1818 11.9989C39.1199 13.1501 39.4529 14.2878 40.1258 15.2239C40.4148 15.5949 40.7844 15.8953 41.2067 16.1024C41.629 16.3094 42.0928 16.4176 42.5631 16.4189C43.0334 16.4201 43.4978 16.3144 43.9212 16.1096C44.3446 15.9048 44.7158 15.6064 45.0068 15.2369C45.681 14.2964 46.0153 13.1545 45.9548 11.9989C46.0166 10.8481 45.6843 9.71054 45.0128 8.77392C44.7229 8.40257 44.3521 8.10219 43.9287 7.89559C43.5053 7.68899 43.0404 7.58161 42.5693 7.58161C42.0982 7.58161 41.6333 7.68899 41.2099 7.89559C40.7865 8.10219 40.4157 8.40257 40.1258 8.77392Z" fill="white"/>
<path d="M50.5048 14.8139C50.4823 14.1933 50.615 13.5769 50.8909 13.0206C51.1668 12.4643 51.5772 11.9856 52.0848 11.6279C53.3126 10.8061 54.7721 10.4008 56.2478 10.4719H58.5348V9.89389C58.5609 9.56585 58.5087 9.23629 58.3825 8.93238C58.2563 8.62847 58.0597 8.35891 57.8088 8.14589C57.2719 7.75225 56.617 7.553 55.9518 7.58089C55.4026 7.55411 54.8604 7.71325 54.4128 8.03259C53.9651 8.35194 53.6382 8.81285 53.4848 9.34089L50.9798 8.81389C51.2299 7.74039 51.8565 6.79205 52.7458 6.14089C53.6861 5.46754 54.8208 5.12022 55.9768 5.15189C59.5402 5.15189 61.3218 6.89923 61.3218 10.3939V18.6289H59.0088L58.7088 16.8949C58.2462 17.5344 57.6301 18.0472 56.9173 18.3863C56.2045 18.7253 55.4179 18.8795 54.6298 18.8349H54.5918C53.524 18.8724 52.481 18.5081 51.6688 17.8139C51.2664 17.4301 50.9536 16.9622 50.7527 16.4437C50.5519 15.9251 50.4679 15.3686 50.5068 14.8139H50.5048ZM53.3978 14.8139C53.3828 15.0331 53.4157 15.253 53.4944 15.4581C53.5731 15.6633 53.6956 15.8488 53.8534 16.0017C54.0111 16.1546 54.2004 16.2713 54.4079 16.3435C54.6154 16.4157 54.8362 16.4418 55.0548 16.4199C55.9486 16.4342 56.8168 16.1212 57.4958 15.5399C57.8466 15.2317 58.1226 14.8476 58.303 14.4169C58.4833 13.9862 58.5633 13.5201 58.5368 13.0539V12.7539H56.1368C55.4279 12.7155 54.7257 12.9093 54.1368 13.3059C53.9 13.4761 53.7087 13.7019 53.5799 13.9635C53.451 14.2251 53.3885 14.5144 53.3978 14.8059" fill="white"/>
<path d="M64.4229 18.629V5.36998H67.2148V7.57998C67.6231 6.8387 68.2222 6.22001 68.9499 5.78798C69.6068 5.38198 70.3617 5.16215 71.1339 5.15198C71.7105 5.14766 72.2823 5.25673 72.8169 5.47298L72.3409 7.97798C71.8761 7.69972 71.3413 7.56088 70.7999 7.57798C70.2786 7.60448 69.7729 7.76503 69.3318 8.04409C68.8907 8.32315 68.5291 8.71128 68.2819 9.17098C67.4905 10.5469 67.1195 12.1246 67.2148 13.709V18.629H64.4229Z" fill="white"/>
<path d="M73.5248 14.8139C73.5023 14.1933 73.635 13.5769 73.9109 13.0206C74.1868 12.4643 74.5972 11.9856 75.1048 11.6279C76.3326 10.8061 77.7921 10.4008 79.2678 10.4719H81.5548V9.89389C81.5809 9.56586 81.5286 9.23633 81.4024 8.93243C81.2762 8.62854 81.0796 8.35896 80.8288 8.14589C80.2919 7.75233 79.637 7.55308 78.9719 7.58089C78.4226 7.55411 77.8804 7.71325 77.4328 8.03259C76.9852 8.35194 76.6582 8.81285 76.5048 9.34089L73.9998 8.81389C74.2499 7.74039 74.8765 6.79205 75.7658 6.14089C76.7061 5.46754 77.8408 5.12022 78.9968 5.15189C82.5602 5.15189 84.3418 6.89923 84.3418 10.3939V18.6289H82.0288L81.7288 16.8949C81.2662 17.5344 80.6501 18.0472 79.9373 18.3863C79.2245 18.7253 78.4379 18.8795 77.6498 18.8349H77.6118C76.5441 18.8723 75.5011 18.508 74.6888 17.8139C74.2864 17.4301 73.9736 16.9622 73.7728 16.4437C73.5719 15.9251 73.4879 15.3686 73.5268 14.8139H73.5248ZM76.4178 14.8139C76.4028 15.0331 76.4357 15.253 76.5144 15.4581C76.5931 15.6633 76.7156 15.8488 76.8734 16.0017C77.0311 16.1546 77.2204 16.2713 77.4279 16.3435C77.6354 16.4157 77.8562 16.4418 78.0748 16.4199C78.9686 16.4342 79.8368 16.1212 80.5158 15.5399C80.8666 15.2317 81.1427 14.8476 81.323 14.4169C81.5034 13.9862 81.5833 13.5201 81.5568 13.0539V12.7539H79.1568C78.4479 12.7155 77.7458 12.9093 77.1568 13.3059C76.92 13.4761 76.7288 13.7019 76.5999 13.9635C76.471 14.2251 76.4085 14.5144 76.4178 14.8059" fill="white"/>
<path d="M87.4429 18.63V0H90.2309V6.835C90.6374 6.32752 91.161 5.92635 91.7569 5.666C92.3842 5.34166 93.0778 5.1658 93.7839 5.152C94.6151 5.09846 95.4475 5.23735 96.2164 5.55786C96.9852 5.87837 97.6698 6.37187 98.2169 7C99.2968 8.43557 99.8355 10.2062 99.7379 12C99.8489 13.8045 99.3144 15.5896 98.2299 17.036C97.6818 17.6511 97.0006 18.133 96.2381 18.445C95.4756 18.7569 94.6519 18.8907 93.8299 18.836C93.0568 18.8434 92.2941 18.6578 91.6109 18.296C91.0465 18.035 90.5667 17.621 90.2259 17.101V18.63H87.4429ZM91.0179 8.776C90.3455 9.71191 90.0125 10.8492 90.0739 12C90.0121 13.1511 90.3451 14.2889 91.0179 15.225C91.3069 15.596 91.6765 15.8964 92.0988 16.1034C92.5211 16.3105 92.9849 16.4187 93.4552 16.42C93.9255 16.4212 94.3899 16.3155 94.8133 16.1107C95.2367 15.9059 95.6079 15.6075 95.8989 15.238C96.5731 14.2975 96.9074 13.1556 96.8469 12C96.9084 10.849 96.5758 9.71149 95.9039 8.775C95.614 8.40365 95.2432 8.10327 94.8198 7.89667C94.3964 7.69007 93.9315 7.5827 93.4604 7.5827C92.9892 7.5827 92.5243 7.69007 92.1009 7.89667C91.6775 8.10327 91.3068 8.40365 91.0169 8.775" fill="white"/>
<path d="M101.588 11.9742C101.537 10.1922 102.172 8.4586 103.361 7.13019C103.984 6.50312 104.724 6.00544 105.54 5.66582C106.356 5.32621 107.231 5.15137 108.115 5.15137C108.999 5.15137 109.874 5.32621 110.69 5.66582C111.505 6.00544 112.246 6.50312 112.869 7.13019C114.058 8.46828 114.692 10.2097 114.642 11.9992C114.693 13.7871 114.059 15.5268 112.869 16.8622C112.269 17.5187 111.532 18.0356 110.711 18.3763C109.89 18.7171 109.003 18.8734 108.115 18.8342C108.113 18.8338 108.111 18.8339 108.109 18.8344C108.108 18.8349 108.106 18.8359 108.105 18.8372C108.104 18.8385 108.103 18.8401 108.102 18.8418C108.102 18.8436 108.101 18.8454 108.102 18.8472C107.215 18.8837 106.331 18.7255 105.512 18.3838C104.693 18.0421 103.959 17.5251 103.361 16.8692C102.17 15.5196 101.536 13.7682 101.588 11.9692V11.9742ZM105.442 15.1042C105.741 15.5284 106.142 15.8708 106.608 16.0999C107.073 16.3289 107.589 16.4373 108.108 16.4152C108.627 16.437 109.144 16.3296 109.611 16.1027C110.079 15.8758 110.483 15.5365 110.787 15.1152C111.415 14.1975 111.751 13.1116 111.751 11.9997C111.751 10.8878 111.415 9.80189 110.787 8.88419C110.468 8.47762 110.062 8.14894 109.597 7.92309C109.133 7.69724 108.623 7.58017 108.106 7.58074C107.59 7.58132 107.08 7.69954 106.616 7.92643C106.153 8.15332 105.746 8.48291 105.429 8.89019C104.78 9.78454 104.445 10.8687 104.478 11.9732C104.449 13.0954 104.787 14.1963 105.442 15.1082" fill="white"/>
<path d="M120.064 0H117.276V18.63H120.064V0Z" fill="white"/>
<path d="M13.2909 19.7861C12.4089 19.7861 11.5379 19.7441 10.6909 19.6641C13.9229 23.2061 17.5839 24.8701 19.9399 23.5091C21.4399 22.6421 22.1399 20.7011 22.0809 18.2241C19.2766 19.2942 16.2952 19.8242 13.2939 19.7861" fill="#FA6158"/>
<path d="M13.2909 4.20985C14.1739 4.20985 15.0439 4.25185 15.8909 4.33185C12.6629 0.790846 9.0019 -0.873154 6.6459 0.486846C5.1459 1.35385 4.4459 3.29485 4.5049 5.77185C7.3092 4.70175 10.2906 4.17177 13.2919 4.20985" fill="#FA6158"/>
<path d="M23.0769 7.50204C22.6013 10.4654 21.5695 13.3121 20.0359 15.892C19.5929 16.66 19.1209 17.392 18.6279 18.086C23.3109 17.058 26.5829 14.72 26.5829 11.998C26.5829 10.264 25.2529 8.68505 23.0769 7.49805" fill="#55BDCC"/>
<path d="M6.547 8.10513C6.99 7.33713 7.462 6.60513 7.955 5.91113C3.271 6.93913 0 9.27813 0 11.9991C0 13.7331 1.329 15.3121 3.506 16.4991C3.98146 13.5354 5.01327 10.6883 6.547 8.10813" fill="#55BDCC"/>
<path d="M20.0351 8.10375C20.4761 8.86775 20.8751 9.64275 21.2351 10.4198C22.6831 5.84775 22.2931 1.84775 19.9371 0.487755C18.4371 -0.380245 16.4011 -0.0172451 14.2871 1.27675C16.617 3.16948 18.5673 5.4863 20.0351 8.10475" fill="#A06BD6"/>
<path d="M6.54702 15.8922C6.10602 15.1282 5.70702 14.3532 5.34702 13.5762C3.89502 18.1462 4.28502 22.1482 6.64202 23.5092C8.14202 24.3772 10.178 24.0142 12.292 22.7202C9.96216 20.8274 8.0118 18.5106 6.54402 15.8922" fill="#A06BD6"/>
</svg>
